<?xml version="1.0" standalone="no"?>
<!DOCTYPE svg PUBLIC "-//W3C//DTD SVG 20010904//EN"
 "http://www.w3.org/TR/2001/REC-SVG-20010904/DTD/svg10.dtd">
<svg version="1.0" xmlns="http://www.w3.org/2000/svg"
 width="543.000000pt" height="543.000000pt" viewBox="0 0 543.000000 543.000000"
 preserveAspectRatio="xMidYMid meet">
<metadata>
Created by potrace 1.11, written by Peter Selinger 2001-2013
</metadata>
<g transform="translate(0.000000,543.000000) scale(0.100000,-0.100000)"
fill="#000000" stroke="none">
<path d="M345 3449 c-137 -15 -205 -54 -205 -119 0 -29 23 -54 81 -88 61 -37
64 -54 62 -357 0 -148 -6 -324 -12 -390 -12 -135 -21 -155 -89 -193 -38 -21
-42 -27 -42 -61 0 -72 60 -95 240 -95 99 0 135 5 175 20 87 34 101 105 27 143
-65 33 -67 38 -70 205 -4 175 4 230 34 234 11 2 27 -5 36 -15 9 -10 55 -103
102 -208 151 -337 173 -367 226 -309 14 16 50 83 79 149 148 329 181 383 219
359 15 -10 17 -32 17 -177 l0 -166 -48 -49 c-43 -44 -48 -53 -45 -87 4 -52 35
-73 134 -90 94 -17 206 -19 325 -5 101 12 152 31 175 65 24 37 10 73 -47 125
-48 44 -50 47 -59 120 -18 141 -24 452 -11 567 20 176 18 171 72 228 55 58 63
95 29 137 -35 46 -92 60 -230 61 -156 0 -196 -10 -245 -66 -21 -23 -88 -139
-149 -257 -106 -206 -112 -215 -142 -218 -37 -4 -47 8 -114 133 -144 266 -193
352 -213 372 -17 17 -41 25 -97 33 -86 11 -105 11 -215 -1z"/>
<path d="M3101 3448 c-35 -5 -103 -23 -150 -41 -206 -77 -350 -222 -418 -419
-35 -102 -37 -261 -4 -362 60 -186 172 -320 333 -402 99 -50 214 -76 338 -76
123 -1 178 11 299 62 37 16 84 32 105 36 85 15 166 132 166 239 0 47 -4 60
-26 81 -31 32 -56 27 -119 -20 -69 -53 -133 -71 -255 -71 -98 1 -109 3 -165
32 -144 75 -225 228 -225 422 0 114 16 158 78 213 93 83 255 57 364 -60 25
-27 55 -67 67 -89 28 -56 69 -103 100 -114 14 -6 48 -7 76 -3 42 5 57 14 92
49 35 37 42 52 48 99 14 111 -30 258 -95 321 -30 28 -35 30 -105 27 -62 -2
-84 2 -132 24 -133 58 -232 72 -372 52z"/>
<path d="M4124 3450 c-164 -18 -244 -62 -244 -138 0 -44 23 -72 60 -72 44 0
100 -76 169 -231 36 -79 82 -182 104 -229 41 -89 120 -263 155 -340 112 -249
136 -282 206 -295 50 -10 111 11 141 47 15 17 136 251 270 518 134 267 255
500 269 518 20 23 40 34 84 42 31 7 63 17 70 22 19 16 15 102 -5 121 -26 22
-85 35 -198 43 -155 10 -295 -19 -329 -68 -27 -39 -20 -67 30 -113 42 -38 46
-46 41 -74 -8 -38 -141 -318 -164 -343 -21 -23 -65 -23 -86 0 -8 9 -34 60 -57
112 -23 52 -53 119 -66 149 -43 94 -43 105 10 161 25 27 46 57 46 68 0 25 -47
67 -91 81 -41 13 -219 31 -294 29 -27 0 -82 -4 -121 -8z"/>
<path d="M2055 2564 c-77 -28 -144 -118 -145 -194 0 -65 21 -113 69 -161 38
-39 56 -49 105 -59 67 -14 106 -8 161 23 83 47 121 143 96 244 -17 66 -54 111
-115 139 -58 27 -112 29 -171 8z"/>
</g>
</svg>
